<svg width="28" height="27" viewBox="0 0 28 27" fill="none" xmlns="http://www.w3.org/2000/svg">
<path fill-rule="evenodd" clip-rule="evenodd" d="M2.79673 24.8592C4.75139 26.8125 7.89273 26.8125 14.1781 26.8125C20.4634 26.8125 23.6061 26.8125 25.5581 24.8592C27.5114 22.9085 27.5114 19.7645 27.5114 13.4792C27.5114 7.19387 27.5114 4.05121 25.5581 2.09787C23.6074 0.145874 20.4634 0.145874 14.1781 0.145874C7.89273 0.145874 4.75006 0.145874 2.79673 2.09787C0.844727 4.05254 0.844727 7.19387 0.844727 13.4792C0.844727 19.7645 0.844727 22.9072 2.79673 24.8592ZM10.8447 9.14587C9.98767 9.14587 9.14987 9.40002 8.43726 9.87617C7.72464 10.3523 7.16923 11.0291 6.84125 11.8209C6.51327 12.6127 6.42745 13.484 6.59466 14.3246C6.76186 15.1652 7.17457 15.9373 7.7806 16.5433C8.38662 17.1494 9.15875 17.5621 9.99933 17.7293C10.8399 17.8965 11.7112 17.8107 12.503 17.4827C13.2948 17.1547 13.9716 16.5993 14.4478 15.8867C14.9239 15.1741 15.1781 14.3363 15.1781 13.4792C15.1781 13.214 15.2834 12.9596 15.471 12.7721C15.6585 12.5846 15.9128 12.4792 16.1781 12.4792C16.4433 12.4792 16.6976 12.5846 16.8852 12.7721C17.0727 12.9596 17.1781 13.214 17.1781 13.4792C17.1781 14.7318 16.8066 15.9563 16.1107 16.9978C15.4148 18.0393 14.4257 18.8511 13.2684 19.3304C12.1111 19.8098 10.8377 19.9352 9.60915 19.6908C8.38061 19.4465 7.25212 18.8433 6.36638 17.9575C5.48065 17.0718 4.87746 15.9433 4.63309 14.7148C4.38871 13.4862 4.51413 12.2128 4.99349 11.0555C5.47284 9.89828 6.2846 8.90915 7.32611 8.21323C8.36763 7.51732 9.59211 7.14587 10.8447 7.14587C11.1099 7.14587 11.3643 7.25123 11.5518 7.43877C11.7394 7.6263 11.8447 7.88066 11.8447 8.14587C11.8447 8.41109 11.7394 8.66544 11.5518 8.85298C11.3643 9.04052 11.1099 9.14587 10.8447 9.14587ZM21.8447 13.4792C21.8447 14.6285 21.3882 15.7307 20.5755 16.5433C19.7629 17.356 18.6607 17.8125 17.5114 17.8125C17.2462 17.8125 16.9918 17.9179 16.8043 18.1054C16.6167 18.293 16.5114 18.5473 16.5114 18.8125C16.5114 19.0778 16.6167 19.3321 16.8043 19.5196C16.9918 19.7072 17.2462 19.8125 17.5114 19.8125C18.764 19.8125 19.9885 19.4411 21.03 18.7452C22.0715 18.0493 22.8833 17.0601 23.3626 15.9029C23.842 14.7456 23.9674 13.4722 23.723 12.2436C23.4787 11.0151 22.8755 9.8866 21.9897 9.00086C21.104 8.11513 19.9755 7.51194 18.747 7.26757C17.5184 7.02319 16.245 7.14861 15.0877 7.62797C13.9305 8.10732 12.9413 8.91908 12.2454 9.96059C11.5495 11.0021 11.1781 12.2266 11.1781 13.4792C11.1781 13.7444 11.2834 13.9988 11.471 14.1863C11.6585 14.3738 11.9128 14.4792 12.1781 14.4792C12.4433 14.4792 12.6976 14.3738 12.8852 14.1863C13.0727 13.9988 13.1781 13.7444 13.1781 13.4792C13.1781 12.3299 13.6346 11.2277 14.4473 10.4151C15.2599 9.60242 16.3621 9.14587 17.5114 9.14587C18.6607 9.14587 19.7629 9.60242 20.5755 10.4151C21.3882 11.2277 21.8447 12.3299 21.8447 13.4792Z" fill="url(#paint0_linear_70_118)"/>
<path fill-rule="evenodd" clip-rule="evenodd" d="M10.789 9.12439C9.93019 9.12439 9.09062 9.37907 8.37651 9.85622C7.6624 10.3334 7.10581 11.0116 6.77714 11.8051C6.44847 12.5985 6.36248 13.4717 6.53003 14.314C6.69759 15.1564 7.11117 15.9301 7.71847 16.5374C8.32577 17.1447 9.09952 17.5583 9.94188 17.7259C10.7842 17.8934 11.6574 17.8074 12.4508 17.4787C13.2443 17.1501 13.9225 16.5935 14.3997 15.8794C14.8768 15.1653 15.1315 14.3257 15.1315 13.4668C15.1315 13.2011 15.2371 12.9462 15.425 12.7582C15.6129 12.5703 15.8678 12.4647 16.1336 12.4647C16.3994 12.4647 16.6543 12.5703 16.8422 12.7582C17.0301 12.9462 17.1357 13.2011 17.1357 13.4668C17.1357 14.7221 16.7635 15.9492 16.0661 16.9929C15.3687 18.0366 14.3775 18.85 13.2178 19.3304C12.0581 19.8108 10.782 19.9364 9.55087 19.6916C8.31974 19.4467 7.18888 18.8422 6.30128 17.9546C5.41368 17.067 4.80922 15.9361 4.56433 14.705C4.31945 13.4739 4.44513 12.1978 4.9255 11.0381C5.40586 9.87838 6.21933 8.88717 7.26303 8.18979C8.30673 7.49241 9.5338 7.12018 10.789 7.12018C11.0548 7.12018 11.3097 7.22576 11.4976 7.41369C11.6856 7.60162 11.7912 7.85651 11.7912 8.12229C11.7912 8.38806 11.6856 8.64295 11.4976 8.83088C11.3097 9.01881 11.0548 9.12439 10.789 9.12439ZM21.8122 13.4668C21.8122 14.6185 21.3547 15.7231 20.5403 16.5374C19.726 17.3518 18.6214 17.8093 17.4697 17.8093C17.204 17.8093 16.9491 17.9149 16.7611 18.1028C16.5732 18.2907 16.4676 18.5456 16.4676 18.8114C16.4676 19.0772 16.5732 19.3321 16.7611 19.52C16.9491 19.7079 17.204 19.8135 17.4697 19.8135C18.725 19.8135 19.9521 19.4413 20.9958 18.7439C22.0395 18.0465 22.8529 17.0553 23.3333 15.8956C23.8137 14.7359 23.9393 13.4598 23.6945 12.2287C23.4496 10.9975 22.8451 9.86667 21.9575 8.97907C21.0699 8.09148 19.939 7.48702 18.7079 7.24213C17.4768 6.99724 16.2007 7.12293 15.041 7.60329C13.8813 8.08366 12.8901 8.89712 12.1927 9.94083C11.4953 10.9845 11.1231 12.2116 11.1231 13.4668C11.1231 13.7326 11.2287 13.9875 11.4166 14.1754C11.6045 14.3634 11.8594 14.4689 12.1252 14.4689C12.391 14.4689 12.6458 14.3634 12.8338 14.1754C13.0217 13.9875 13.1273 13.7326 13.1273 13.4668C13.1273 12.3152 13.5848 11.2106 14.3992 10.3963C15.2135 9.5819 16.3181 9.12439 17.4697 9.12439C18.6214 9.12439 19.726 9.5819 20.5403 10.3963C21.3547 11.2106 21.8122 12.3152 21.8122 13.4668Z" fill="white"/>
<defs>
<linearGradient id="paint0_linear_70_118" x1="2.17793" y1="1.87922" x2="25.7779" y2="27.0792" gradientUnits="userSpaceOnUse">
<stop stop-color="#633CFF"/>
<stop offset="1" stop-color="#FF00CC"/>
</linearGradient>
</defs>
</svg>
