<svg width="20" height="21" viewBox="0 0 20 21" fill="none" xmlns="http://www.w3.org/2000/svg">
<g clip-path="url(#clip0_42_22793)">
<path d="M9.9827 0C4.72034 0 0.409399 4.09471 0 9.29797L5.36904 11.5381C5.82384 11.2239 6.37379 11.0408 6.96483 11.0408C7.01816 11.0408 7.07078 11.0422 7.12268 11.0451L9.5106 7.55226V7.50324C9.5106 5.40147 11.2051 3.69108 13.2882 3.69108C15.3712 3.69108 17.0657 5.40147 17.0657 7.50324C17.0657 9.60502 15.3712 11.3161 13.2882 11.3161C13.2593 11.3161 13.2312 11.3154 13.2024 11.3147L9.79674 13.766C9.7989 13.8114 9.80035 13.8569 9.80035 13.9015C9.80035 15.48 8.52818 16.7637 6.96483 16.7637C5.59248 16.7637 4.44428 15.7748 4.18481 14.4659L0.344529 12.8636C1.5338 17.1068 5.39715 20.2177 9.9827 20.2177C15.5154 20.2177 20 15.6912 20 10.1088C20 4.52573 15.5154 0 9.9827 0ZM6.2775 15.3385L5.04714 14.8253C5.26481 15.2837 5.6425 15.6671 6.14343 15.8776C7.22603 16.3331 8.47441 15.8149 8.92562 14.7215C9.14401 14.1924 9.14545 13.6086 8.92922 13.0781C8.71299 12.5476 8.30431 12.1339 7.78031 11.9134C7.25919 11.695 6.70131 11.7029 6.21119 11.8896L7.48263 12.4201C8.28125 12.7559 8.65893 13.6814 8.32593 14.4872C7.99366 15.2931 7.07611 15.6744 6.2775 15.3385ZM15.8054 7.50332C15.8054 6.10285 14.6759 4.96259 13.2885 4.96259C11.9002 4.96259 10.7708 6.10285 10.7708 7.50332C10.7708 8.90378 11.9002 10.0433 13.2885 10.0433C14.6759 10.0433 15.8054 8.90378 15.8054 7.50332ZM11.4015 7.49899C11.4015 6.44522 12.2484 5.59111 13.2921 5.59111C14.3365 5.59111 15.1834 6.44522 15.1834 7.49899C15.1834 8.55276 14.3365 9.40688 13.2921 9.40688C12.2484 9.40688 11.4015 8.55276 11.4015 7.49899Z" fill="black"/>
</g>
<defs>
<clipPath id="clip0_42_22793">
<rect width="20" height="20.2344" fill="white"/>
</clipPath>
</defs>
</svg>
