<svg width="17" height="17" viewBox="0 0 17 17" fill="none" xmlns="http://www.w3.org/2000/svg">
<path fill-rule="evenodd" clip-rule="evenodd" d="M5.35377 5.36791C4.65188 5.36791 3.96574 5.57605 3.38214 5.966C2.79853 6.35595 2.34367 6.91021 2.07506 7.55868C1.80646 8.20714 1.73618 8.9207 1.87311 9.60911C2.01005 10.2975 2.34804 10.9299 2.84436 11.4262C3.34067 11.9225 3.97302 12.2605 4.66143 12.3974C5.34984 12.5344 6.06339 12.4641 6.71186 12.1955C7.36033 11.9269 7.91458 11.472 8.30453 10.8884C8.69449 10.3048 8.90262 9.61866 8.90262 8.91676C8.90262 8.69956 8.98891 8.49125 9.14249 8.33767C9.29608 8.18408 9.50438 8.0978 9.72159 8.0978C9.93879 8.0978 10.1471 8.18408 10.3007 8.33767C10.4543 8.49125 10.5406 8.69956 10.5406 8.91676C10.5406 9.94261 10.2364 10.9454 9.66642 11.7984C9.09649 12.6513 8.28643 13.3161 7.33867 13.7087C6.39091 14.1013 5.34802 14.204 4.34188 14.0039C3.33575 13.8037 2.41155 13.3098 1.68617 12.5844C0.960783 11.859 0.46679 10.9348 0.266657 9.92865C0.066524 8.92251 0.16924 7.87963 0.561815 6.93187C0.95439 5.98411 1.61919 5.17404 2.47215 4.60411C3.32512 4.03418 4.32793 3.72998 5.35377 3.72998C5.57098 3.72998 5.77928 3.81627 5.93287 3.96985C6.08645 4.12344 6.17274 4.33174 6.17274 4.54895C6.17274 4.76615 6.08645 4.97446 5.93287 5.12804C5.77928 5.28163 5.57098 5.36791 5.35377 5.36791ZM14.3624 8.91676C14.3624 9.85797 13.9885 10.7606 13.323 11.4262C12.6574 12.0917 11.7548 12.4656 10.8135 12.4656C10.5963 12.4656 10.388 12.5519 10.2344 12.7055C10.0809 12.8591 9.99457 13.0674 9.99457 13.2846C9.99457 13.5018 10.0809 13.7101 10.2344 13.8637C10.388 14.0173 10.5963 14.1035 10.8135 14.1035C11.8394 14.1035 12.8422 13.7993 13.6952 13.2294C14.5481 12.6595 15.2129 11.8494 15.6055 10.9017C15.9981 9.9539 16.1008 8.91101 15.9007 7.90487C15.7005 6.89873 15.2065 5.97454 14.4811 5.24915C13.7558 4.52377 12.8316 4.02978 11.8254 3.82965C10.8193 3.62951 9.77641 3.73223 8.82865 4.1248C7.88089 4.51738 7.07082 5.18218 6.50089 6.03514C5.93096 6.8881 5.62676 7.89091 5.62676 8.91676C5.62676 9.13396 5.71305 9.34227 5.86663 9.49586C6.02022 9.64944 6.22852 9.73573 6.44573 9.73573C6.66293 9.73573 6.87124 9.64944 7.02482 9.49586C7.17841 9.34227 7.26469 9.13396 7.26469 8.91676C7.26469 7.97555 7.63859 7.07288 8.30413 6.40735C8.96966 5.74181 9.87233 5.36791 10.8135 5.36791C11.7548 5.36791 12.6574 5.74181 13.323 6.40735C13.9885 7.07288 14.3624 7.97555 14.3624 8.91676Z" fill="black"/>
</svg>
