<svg width="168" height="40" viewBox="0 0 168 40" fill="none" xmlns="http://www.w3.org/2000/svg">
<path fill-rule="evenodd" clip-rule="evenodd" d="M5.7735 34.225C8.21683 36.6666 12.1435 36.6666 20.0002 36.6666C27.8568 36.6666 31.7852 36.6666 34.2252 34.225C36.6668 31.7866 36.6668 27.8566 36.6668 20C36.6668 12.1433 36.6668 8.21498 34.2252 5.77331C31.7868 3.33331 27.8568 3.33331 20.0002 3.33331C12.1435 3.33331 8.21516 3.33331 5.7735 5.77331C3.3335 8.21665 3.3335 12.1433 3.3335 20C3.3335 27.8566 3.3335 31.785 5.7735 34.225ZM15.8335 14.5833C14.7622 14.5833 13.7149 14.901 12.8242 15.4962C11.9334 16.0914 11.2391 16.9373 10.8291 17.9271C10.4192 18.9169 10.3119 20.006 10.5209 21.0567C10.7299 22.1074 11.2458 23.0726 12.0033 23.8301C12.7609 24.5877 13.726 25.1036 14.7768 25.3126C15.8275 25.5216 16.9166 25.4143 17.9064 25.0043C18.8961 24.5944 19.7421 23.9001 20.3373 23.0093C20.9325 22.1186 21.2502 21.0713 21.2502 20C21.2502 19.6685 21.3819 19.3505 21.6163 19.1161C21.8507 18.8817 22.1686 18.75 22.5002 18.75C22.8317 18.75 23.1496 18.8817 23.384 19.1161C23.6185 19.3505 23.7502 19.6685 23.7502 20C23.7502 21.5657 23.2859 23.0964 22.416 24.3982C21.5461 25.7001 20.3097 26.7148 18.8631 27.314C17.4165 27.9132 15.8247 28.07 14.289 27.7645C12.7533 27.4591 11.3427 26.7051 10.2356 25.5979C9.1284 24.4907 8.37441 23.0801 8.06895 21.5444C7.76348 20.0088 7.92026 18.417 8.51945 16.9704C9.11864 15.5238 10.1333 14.2874 11.4352 13.4175C12.7371 12.5476 14.2677 12.0833 15.8335 12.0833C16.165 12.0833 16.483 12.215 16.7174 12.4494C16.9518 12.6838 17.0835 13.0018 17.0835 13.3333C17.0835 13.6648 16.9518 13.9828 16.7174 14.2172C16.483 14.4516 16.165 14.5833 15.8335 14.5833ZM29.5835 20C29.5835 21.4366 29.0128 22.8143 27.997 23.8301C26.9812 24.846 25.6034 25.4166 24.1668 25.4166C23.8353 25.4166 23.5174 25.5483 23.2829 25.7828C23.0485 26.0172 22.9168 26.3351 22.9168 26.6666C22.9168 26.9982 23.0485 27.3161 23.2829 27.5505C23.5174 27.785 23.8353 27.9166 24.1668 27.9166C25.7326 27.9166 27.2632 27.4523 28.5651 26.5824C29.867 25.7126 30.8817 24.4761 31.4809 23.0296C32.0801 21.583 32.2368 19.9912 31.9314 18.4555C31.6259 16.9198 30.8719 15.5092 29.7648 14.4021C28.6576 13.2949 27.247 12.5409 25.7113 12.2354C24.1756 11.93 22.5838 12.0867 21.1373 12.6859C19.6907 13.2851 18.4543 14.2998 17.5844 15.6017C16.7145 16.9036 16.2502 18.4342 16.2502 20C16.2502 20.3315 16.3819 20.6494 16.6163 20.8839C16.8507 21.1183 17.1686 21.25 17.5002 21.25C17.8317 21.25 18.1496 21.1183 18.384 20.8839C18.6185 20.6494 18.7502 20.3315 18.7502 20C18.7502 18.5634 19.3208 17.1856 20.3367 16.1698C21.3525 15.154 22.7302 14.5833 24.1668 14.5833C25.6034 14.5833 26.9812 15.154 27.997 16.1698C29.0128 17.1856 29.5835 18.5634 29.5835 20Z" fill="#633CFF"/>
<path d="M161.475 33.122V14.762H166.875V33.122H161.475ZM161.295 12.314V6.48199H167.055V12.314H161.295Z" fill="#333333"/>
<path d="M152.492 33.122V7.20203H157.892V33.122H152.492Z" fill="#333333"/>
<path d="M138.869 33.122V14.762H144.161V19.082H144.269V33.122H138.869ZM144.269 23.546L143.801 19.19C144.233 17.63 144.941 16.442 145.925 15.626C146.909 14.81 148.133 14.402 149.597 14.402C150.053 14.402 150.389 14.45 150.605 14.546V19.586C150.485 19.538 150.317 19.514 150.101 19.514C149.885 19.49 149.621 19.478 149.309 19.478C147.581 19.478 146.309 19.79 145.493 20.414C144.677 21.014 144.269 22.058 144.269 23.546Z" fill="#333333"/>
<path d="M127.557 33.482C125.517 33.482 123.741 33.086 122.229 32.294C120.717 31.478 119.541 30.35 118.701 28.91C117.885 27.47 117.477 25.814 117.477 23.942C117.477 22.046 117.885 20.39 118.701 18.974C119.541 17.534 120.705 16.418 122.193 15.626C123.681 14.81 125.409 14.402 127.377 14.402C129.273 14.402 130.917 14.786 132.309 15.554C133.701 16.322 134.781 17.39 135.549 18.758C136.317 20.126 136.701 21.734 136.701 23.582C136.701 23.966 136.689 24.326 136.665 24.662C136.641 24.974 136.605 25.274 136.557 25.562H120.645V21.998H132.201L131.265 22.646C131.265 21.158 130.905 20.066 130.185 19.37C129.489 18.65 128.529 18.29 127.305 18.29C125.889 18.29 124.785 18.77 123.993 19.73C123.225 20.69 122.841 22.13 122.841 24.05C122.841 25.922 123.225 27.314 123.993 28.226C124.785 29.138 125.961 29.594 127.521 29.594C128.385 29.594 129.129 29.45 129.753 29.162C130.377 28.874 130.845 28.406 131.157 27.758H136.233C135.633 29.534 134.601 30.938 133.137 31.97C131.697 32.978 129.837 33.482 127.557 33.482Z" fill="#333333"/>
<path d="M97.3477 33.122V7.20203H102.748V33.122H97.3477ZM110.128 33.122V21.746C110.128 20.738 109.864 19.982 109.336 19.478C108.832 18.974 108.088 18.722 107.104 18.722C106.264 18.722 105.508 18.914 104.836 19.298C104.188 19.682 103.672 20.21 103.288 20.882C102.928 21.554 102.748 22.346 102.748 23.258L102.28 18.83C102.88 17.486 103.756 16.418 104.908 15.626C106.084 14.81 107.524 14.402 109.228 14.402C111.268 14.402 112.828 14.978 113.908 16.13C114.988 17.258 115.528 18.782 115.528 20.702V33.122H110.128Z" fill="#333333"/>
<path d="M91.6273 33.518C89.2753 33.518 87.5233 32.954 86.3713 31.826C85.2433 30.674 84.6793 28.934 84.6793 26.606V10.658L90.0793 8.64197V26.786C90.0793 27.602 90.3073 28.214 90.7633 28.622C91.2193 29.03 91.9273 29.234 92.8873 29.234C93.2473 29.234 93.5833 29.198 93.8953 29.126C94.2073 29.054 94.5193 28.97 94.8313 28.874V32.978C94.5193 33.146 94.0753 33.278 93.4993 33.374C92.9473 33.47 92.3233 33.518 91.6273 33.518ZM81.2593 18.866V14.762H94.8313V18.866H81.2593Z" fill="#333333"/>
<path d="M72.0956 33.482C70.0556 33.482 68.2796 33.086 66.7676 32.294C65.2556 31.478 64.0796 30.35 63.2396 28.91C62.4236 27.47 62.0156 25.814 62.0156 23.942C62.0156 22.046 62.4236 20.39 63.2396 18.974C64.0796 17.534 65.2436 16.418 66.7316 15.626C68.2196 14.81 69.9476 14.402 71.9156 14.402C73.8116 14.402 75.4556 14.786 76.8476 15.554C78.2396 16.322 79.3196 17.39 80.0876 18.758C80.8556 20.126 81.2396 21.734 81.2396 23.582C81.2396 23.966 81.2276 24.326 81.2036 24.662C81.1796 24.974 81.1436 25.274 81.0956 25.562H65.1836V21.998H76.7396L75.8036 22.646C75.8036 21.158 75.4436 20.066 74.7236 19.37C74.0276 18.65 73.0676 18.29 71.8436 18.29C70.4276 18.29 69.3236 18.77 68.5316 19.73C67.7636 20.69 67.3796 22.13 67.3796 24.05C67.3796 25.922 67.7636 27.314 68.5316 28.226C69.3236 29.138 70.4996 29.594 72.0596 29.594C72.9236 29.594 73.6676 29.45 74.2916 29.162C74.9156 28.874 75.3836 28.406 75.6956 27.758H80.7716C80.1716 29.534 79.1396 30.938 77.6756 31.97C76.2356 32.978 74.3756 33.482 72.0956 33.482Z" fill="#333333"/>
<path d="M58.368 33.518C56.016 33.518 54.264 32.954 53.112 31.826C51.984 30.674 51.42 28.934 51.42 26.606V10.658L56.82 8.64197V26.786C56.82 27.602 57.048 28.214 57.504 28.622C57.96 29.03 58.668 29.234 59.628 29.234C59.988 29.234 60.324 29.198 60.636 29.126C60.948 29.054 61.26 28.97 61.572 28.874V32.978C61.26 33.146 60.816 33.278 60.24 33.374C59.688 33.47 59.064 33.518 58.368 33.518ZM48 18.866V14.762H61.572V18.866H48Z" fill="#333333"/>
</svg>
