<svg width="134" height="33" viewBox="0 0 134 33" fill="none" xmlns="http://www.w3.org/2000/svg">
<path fill-rule="evenodd" clip-rule="evenodd" d="M4.79673 27.8592C6.75139 29.8125 9.89273 29.8125 16.1781 29.8125C22.4634 29.8125 25.6061 29.8125 27.5581 27.8592C29.5114 25.9085 29.5114 22.7645 29.5114 16.4792C29.5114 10.1939 29.5114 7.05121 27.5581 5.09787C25.6074 3.14587 22.4634 3.14587 16.1781 3.14587C9.89273 3.14587 6.75006 3.14587 4.79673 5.09787C2.84473 7.05254 2.84473 10.1939 2.84473 16.4792C2.84473 22.7645 2.84473 25.9072 4.79673 27.8592ZM12.8447 12.1459C11.9877 12.1459 11.1499 12.4 10.4373 12.8762C9.72464 13.3523 9.16923 14.0291 8.84125 14.8209C8.51327 15.6127 8.42745 16.484 8.59466 17.3246C8.76186 18.1652 9.17457 18.9373 9.7806 19.5433C10.3866 20.1494 11.1588 20.5621 11.9993 20.7293C12.8399 20.8965 13.7112 20.8107 14.503 20.4827C15.2948 20.1547 15.9716 19.5993 16.4478 18.8867C16.9239 18.1741 17.1781 17.3363 17.1781 16.4792C17.1781 16.214 17.2834 15.9596 17.471 15.7721C17.6585 15.5846 17.9128 15.4792 18.1781 15.4792C18.4433 15.4792 18.6976 15.5846 18.8852 15.7721C19.0727 15.9596 19.1781 16.214 19.1781 16.4792C19.1781 17.7318 18.8066 18.9563 18.1107 19.9978C17.4148 21.0393 16.4257 21.8511 15.2684 22.3304C14.1111 22.8098 12.8377 22.9352 11.6092 22.6908C10.3806 22.4465 9.25212 21.8433 8.36638 20.9575C7.48065 20.0718 6.87746 18.9433 6.63309 17.7148C6.38871 16.4862 6.51413 15.2128 6.99349 14.0555C7.47284 12.8983 8.2846 11.9091 9.32611 11.2132C10.3676 10.5173 11.5921 10.1459 12.8447 10.1459C13.1099 10.1459 13.3643 10.2512 13.5518 10.4388C13.7394 10.6263 13.8447 10.8807 13.8447 11.1459C13.8447 11.4111 13.7394 11.6654 13.5518 11.853C13.3643 12.0405 13.1099 12.1459 12.8447 12.1459ZM23.8447 16.4792C23.8447 17.6285 23.3882 18.7307 22.5755 19.5433C21.7629 20.356 20.6607 20.8125 19.5114 20.8125C19.2462 20.8125 18.9918 20.9179 18.8043 21.1054C18.6167 21.293 18.5114 21.5473 18.5114 21.8125C18.5114 22.0778 18.6167 22.3321 18.8043 22.5196C18.9918 22.7072 19.2462 22.8125 19.5114 22.8125C20.764 22.8125 21.9885 22.4411 23.03 21.7452C24.0715 21.0493 24.8833 20.0601 25.3626 18.9029C25.842 17.7456 25.9674 16.4722 25.723 15.2436C25.4787 14.0151 24.8755 12.8866 23.9897 12.0009C23.104 11.1151 21.9755 10.5119 20.747 10.2676C19.5184 10.0232 18.245 10.1486 17.0877 10.628C15.9305 11.1073 14.9413 11.9191 14.2454 12.9606C13.5495 14.0021 13.1781 15.2266 13.1781 16.4792C13.1781 16.7444 13.2834 16.9988 13.471 17.1863C13.6585 17.3738 13.9128 17.4792 14.1781 17.4792C14.4433 17.4792 14.6976 17.3738 14.8852 17.1863C15.0727 16.9988 15.1781 16.7444 15.1781 16.4792C15.1781 15.3299 15.6346 14.2277 16.4473 13.4151C17.2599 12.6024 18.3621 12.1459 19.5114 12.1459C20.6607 12.1459 21.7629 12.6024 22.5755 13.4151C23.3882 14.2277 23.8447 15.3299 23.8447 16.4792Z" fill="#633CFF"/>
<path d="M129.358 26.9769V12.2889H133.678V26.9769H129.358ZM129.214 10.3305V5.66486H133.822V10.3305H129.214Z" fill="#333333"/>
<path d="M122.171 26.9768V6.24084H126.491V26.9768H122.171Z" fill="#333333"/>
<path d="M111.272 26.9769V12.2889H115.506V15.7449H115.592V26.9769H111.272ZM115.592 19.3161L115.218 15.8313C115.564 14.5833 116.13 13.6329 116.917 12.9801C117.704 12.3273 118.684 12.0009 119.855 12.0009C120.22 12.0009 120.488 12.0393 120.661 12.1161V16.1481C120.565 16.1097 120.431 16.0905 120.258 16.0905C120.085 16.0713 119.874 16.0617 119.624 16.0617C118.242 16.0617 117.224 16.3113 116.572 16.8105C115.919 17.2905 115.592 18.1257 115.592 19.3161Z" fill="#333333"/>
<path d="M102.223 27.2649C100.591 27.2649 99.1704 26.9481 97.9608 26.3145C96.7512 25.6617 95.8104 24.7593 95.1384 23.6073C94.4856 22.4553 94.1592 21.1305 94.1592 19.6329C94.1592 18.1161 94.4856 16.7913 95.1384 15.6585C95.8104 14.5065 96.7416 13.6137 97.932 12.9801C99.1224 12.3273 100.505 12.0009 102.079 12.0009C103.596 12.0009 104.911 12.3081 106.025 12.9225C107.138 13.5369 108.002 14.3913 108.617 15.4857C109.231 16.5801 109.538 17.8665 109.538 19.3449C109.538 19.6521 109.529 19.9401 109.51 20.2089C109.49 20.4585 109.462 20.6985 109.423 20.9289H96.6936V18.0777H105.938L105.19 18.5961C105.19 17.4057 104.902 16.5321 104.326 15.9753C103.769 15.3993 103.001 15.1113 102.022 15.1113C100.889 15.1113 100.006 15.4953 99.372 16.2633C98.7576 17.0313 98.4504 18.1833 98.4504 19.7193C98.4504 21.2169 98.7576 22.3305 99.372 23.0601C100.006 23.7897 100.946 24.1545 102.194 24.1545C102.886 24.1545 103.481 24.0393 103.98 23.8089C104.479 23.5785 104.854 23.2041 105.103 22.6857H109.164C108.684 24.1065 107.858 25.2297 106.687 26.0553C105.535 26.8617 104.047 27.2649 102.223 27.2649Z" fill="#333333"/>
<path d="M78.0557 26.9769V6.24091H82.3757V26.9769H78.0557ZM88.2797 26.9769V17.8761C88.2797 17.0697 88.0685 16.4649 87.6461 16.0617C87.2429 15.6585 86.6477 15.4569 85.8605 15.4569C85.1885 15.4569 84.5837 15.6105 84.0461 15.9177C83.5277 16.2249 83.1149 16.6473 82.8077 17.1849C82.5197 17.7225 82.3757 18.3561 82.3757 19.0857L82.0013 15.5433C82.4813 14.4681 83.1821 13.6137 84.1037 12.9801C85.0445 12.3273 86.1965 12.0009 87.5597 12.0009C89.1917 12.0009 90.4397 12.4617 91.3037 13.3833C92.1677 14.2857 92.5997 15.5049 92.5997 17.0409V26.9769H88.2797Z" fill="#333333"/>
<path d="M73.4795 27.2937C71.5979 27.2937 70.1963 26.8425 69.2747 25.9401C68.3723 25.0185 67.9211 23.6265 67.9211 21.7641V9.00568L72.2411 7.39288V21.9081C72.2411 22.5609 72.4235 23.0505 72.7883 23.3769C73.1531 23.7033 73.7195 23.8665 74.4875 23.8665C74.7755 23.8665 75.0443 23.8377 75.2939 23.7801C75.5435 23.7225 75.7931 23.6553 76.0427 23.5785V26.8617C75.7931 26.9961 75.4379 27.1017 74.9771 27.1785C74.5355 27.2553 74.0363 27.2937 73.4795 27.2937ZM65.1851 15.5721V12.2889H76.0427V15.5721H65.1851Z" fill="#333333"/>
<path d="M57.854 27.2649C56.222 27.2649 54.8012 26.9481 53.5916 26.3145C52.382 25.6617 51.4412 24.7593 50.7692 23.6073C50.1164 22.4553 49.79 21.1305 49.79 19.6329C49.79 18.1161 50.1164 16.7913 50.7692 15.6585C51.4412 14.5065 52.3724 13.6137 53.5628 12.9801C54.7532 12.3273 56.1356 12.0009 57.71 12.0009C59.2268 12.0009 60.542 12.3081 61.6556 12.9225C62.7692 13.5369 63.6332 14.3913 64.2476 15.4857C64.862 16.5801 65.1692 17.8665 65.1692 19.3449C65.1692 19.6521 65.1596 19.9401 65.1404 20.2089C65.1212 20.4585 65.0924 20.6985 65.054 20.9289H52.3244V18.0777H61.5692L60.8204 18.5961C60.8204 17.4057 60.5324 16.5321 59.9564 15.9753C59.3996 15.3993 58.6316 15.1113 57.6524 15.1113C56.5196 15.1113 55.6364 15.4953 55.0028 16.2633C54.3884 17.0313 54.0812 18.1833 54.0812 19.7193C54.0812 21.2169 54.3884 22.3305 55.0028 23.0601C55.6364 23.7897 56.5772 24.1545 57.8252 24.1545C58.5164 24.1545 59.1116 24.0393 59.6108 23.8089C60.11 23.5785 60.4844 23.2041 60.734 22.6857H64.7948C64.3148 24.1065 63.4892 25.2297 62.318 26.0553C61.166 26.8617 59.678 27.2649 57.854 27.2649Z" fill="#333333"/>
<path d="M46.872 27.2937C44.9904 27.2937 43.5888 26.8425 42.6672 25.9401C41.7648 25.0185 41.3136 23.6265 41.3136 21.7641V9.00568L45.6336 7.39288V21.9081C45.6336 22.5609 45.816 23.0505 46.1808 23.3769C46.5456 23.7033 47.112 23.8665 47.88 23.8665C48.168 23.8665 48.4368 23.8377 48.6864 23.7801C48.936 23.7225 49.1856 23.6553 49.4352 23.5785V26.8617C49.1856 26.9961 48.8304 27.1017 48.3696 27.1785C47.928 27.2553 47.4288 27.2937 46.872 27.2937ZM38.5776 15.5721V12.2889H49.4352V15.5721H38.5776Z" fill="#333333"/>
</svg>
